<?xml version="1.0" encoding="utf-8"?>
<!-- Generator: Adobe Illustrator 16.0.0, SVG Export Plug-In . SVG Version: 6.00 Build 0)  -->
<!DOCTYPE svg PUBLIC "-//W3C//DTD SVG 1.1//EN" "http://www.w3.org/Graphics/SVG/1.1/DTD/svg11.dtd">
<svg version="1.1" id="Layer_1" xmlns="http://www.w3.org/2000/svg" xmlns:xlink="http://www.w3.org/1999/xlink" x="0px" y="0px"
	 width="512px" height="512px" viewBox="0 0 512 512" enable-background="new 0 0 512 512" xml:space="preserve">
<g>
	<path fill-rule="evenodd" clip-rule="evenodd" fill="#F7B646" d="M162.086,322.013c2.007-0.118-2.479-0.354,6.259-0.118
		c8.739,0.24,259.923,0,259.923,0s33.541-6.257,42.043-36.844l0,0l10.037-57.394l15.113-86.324
		c3.663-21.376-13.344-20.077-13.344-20.077H415.16H304.625H191.964h-71.327L162.086,322.013z"/>
	<path fill-rule="evenodd" clip-rule="evenodd" fill="#E88826" d="M462.163,301.349c3.425-4.488,6.375-9.919,8.149-16.298l0,0
		l10.037-57.394l15.113-86.324c2.364-13.817-3.897-18.188-8.62-19.486c0.118,0,5.436,5.197,2.247,22.673
		C485.78,162.115,462.163,300.995,462.163,301.349L462.163,301.349z"/>
	<path fill-rule="evenodd" clip-rule="evenodd" fill="#D0812D" d="M313.247,184.319h69.557l4.488-45.939h-74.045V184.319z
		 M296.004,184.319h-69.556l-4.369-45.939h73.925V184.319z M237.313,296.508h58.691v18.421c-19.956,0-39.68,0-56.922-0.119
		L237.313,296.508z M219.954,296.508l1.77,18.303c-25.506,0-42.632,0-42.632,0s-8.502,4.016-14.761,2.478
		c-2.598-0.707-1.534-5.549-4.487-6.965l-2.362-13.815H219.954z M149.569,251.041h66.015l2.715,28.107h-63.77L149.569,251.041z
		 M235.659,279.148l-2.715-28.107h63.061v28.107H235.659z M228.1,201.677h67.904v32.004h-64.714L228.1,201.677z M210.859,201.677
		l3.07,32.004h-67.314l-5.549-32.004H210.859z M204.719,138.38l4.368,45.939h-71.093l-7.91-45.939H204.719z M372.056,296.508
		h-58.809v18.421c20.077,0,39.679,0,57.039-0.119L372.056,296.508z M389.415,296.508l-1.769,18.303c25.391,0,42.51,0,42.51,0
		s9.333,0.236,19.252-4.487l2.478-13.815H389.415z M459.681,251.041h-65.896l-2.715,28.107h63.769L459.681,251.041z M373.71,279.148
		l2.714-28.107h-63.178v28.107H373.71z M381.149,201.677h-67.902v32.004h64.834L381.149,201.677z M398.508,201.677l-3.067,32.004
		h67.312l5.549-32.004H398.508z M404.533,138.38l-4.369,45.939h71.092l7.914-45.939H404.533z"/>
	<path fill-rule="evenodd" clip-rule="evenodd" fill="#E88826" d="M160.553,296.508c0,0,0.826-6.025,7.32-6.97h40.979
		c0,0,10.391-0.472,11.101,6.97H160.553z M227.864,133.065c0,0-12.635,0.235-12.044,8.384c0.589,8.031,16.886,173.48,16.886,173.48
		l6.376-0.119l-1.769-18.303h58.691c0-7.324-9.21-6.97-9.21-6.97s-29.054,0-37.908,0c-8.74,0-11.573,6.97-11.573,6.97l-4.37-45.468
		c0,0,3.896-7.321,10.982-7.321c6.968,0,43.458,0,43.458,0s7.44-0.12,8.621,7.321h-63.061l-3.426-35.545l-1.418-13.818
		c0,0,3.308-6.494,11.692-6.494c8.266,0,46.883,0,46.883,0s8.032-0.238,9.33,6.494H228.1l-6.021-63.297l1.297-1.182
		c-0.354,0.71-0.589,1.182-0.589,1.182h73.218c0-5.905-7.913-5.905-7.913-5.905s-51.724,0-57.392,0
		C229.636,132.475,228.691,132.711,227.864,133.065L227.864,133.065z M130.438,138.38c0,0,1.417-5.905,8.62-5.905
		c7.204,0,57.866,0,57.866,0s7.204-0.354,7.795,5.905C204.719,138.38,130.084,138.38,130.438,138.38L130.438,138.38z
		 M142.484,201.677c0,0,3.424-6.494,10.391-6.494c7.085,0,47.356,0,47.356,0s9.21-0.238,10.628,6.494H142.484z M151.931,251.041
		c0,0,2.598-7.321,9.919-7.321c7.323,0,44.758,0,44.758,0s8.266,0.708,8.976,7.321H151.931z"/>
	<path fill-rule="evenodd" clip-rule="evenodd" fill="#989999" d="M144.49,319.535c-38.498,19.719-27.043,78.296,19.957,78.296
		h11.104l5.667,8.386l10.393,15.468l6.731,9.919v-12.042v-18.545v-3.186H366.86l5.667,8.386l10.395,15.468l6.611,9.919v-12.042
		v-18.545v-3.186h54.443c0,0,10.155,0,10.155-10.395c0-10.39-11.22-9.682-11.22-9.682l-274.685-0.119h-1.062
		c-35.428-2.717-28.933-43.931,0.826-43.458C145.672,334.177,144.49,319.535,144.49,319.535L144.49,319.535z"/>
	<path fill-rule="evenodd" clip-rule="evenodd" fill="#888989" d="M448.346,396.884c2.714-1.062,5.786-3.658,5.786-9.448
		c0-10.39-11.22-9.682-11.22-9.682l-274.685-0.119h-1.062c-35.428-2.717-28.933-43.931,0.826-43.458
		c-6.612,0-11.336-1.297-14.644-3.067l0,0c0,0-15.942,5.313-17.95,23.972c-2.008,18.539,14.762,29.053,36.256,29.053
		c21.612,0,271.375,0,271.375,0s5.317,0.708,5.317,5.666V396.884z"/>
	<path fill-rule="evenodd" clip-rule="evenodd" fill="#E88826" d="M448.818,296.508c0,0-0.948-6.025-7.441-6.97H400.4
		c0,0-10.277-0.472-10.986,6.97H448.818z M410.909,132.593c0,0-12.283-1.772-13.699,9.803
		c-1.297,11.691-17.242,172.415-17.242,172.415l7.677,3.426v-4.251l10.862-112.309h68.378c0,0-3.425-6.494-10.512-6.494
		c-6.966,0-47.353,0-47.353,0s-9.093-0.238-10.513,6.494l6.025-63.297c0,0,74.636,0,74.282,0c0,0-1.42-5.905-8.503-5.905
		c-7.206,0-57.87,0-57.87,0S411.853,132.475,410.909,132.593L410.909,132.593z M372.056,296.508c0,0-2.833-6.97-11.689-6.97
		c-8.856,0-37.792,0-37.792,0s-9.328-0.354-9.328,6.97H372.056z M376.425,251.041c0,0-4.015-7.321-10.981-7.321
		c-7.087,0-43.577,0-43.577,0s-7.324-0.12-8.621,7.321H376.425z M381.149,201.677c0,0-3.187-6.494-11.571-6.494
		c-8.387,0-46.885,0-46.885,0s-8.032-0.238-9.447,6.494H381.149z M386.583,138.38c0,0-2.245-5.905-7.914-5.905
		c-5.788,0-57.392,0-57.392,0s-8.032,0-8.032,5.905H386.583z M457.439,251.041c0,0-2.6-7.321-10.041-7.321
		c-7.32,0-44.639,0-44.639,0s-8.385,0.708-8.975,7.321H457.439z"/>
	<path fill-rule="evenodd" clip-rule="evenodd" fill="#D0D0D0" d="M80.247,53.823l-52.313-14.76
		c-11.219-2.953-19.958,14.76,0,20.076l44.992,13.817l26.335,7.914l27.871,146.788l17.358,91.878c0,0,1.182,14.642,23.5,14.642
		h66.841h69.793h67.667h50.428c41.213,0,45.228-35.191,45.228-35.191l2.364-13.935l0,0c-8.503,30.586-40.157,29.76-40.157,29.76
		s-244.687,0.354-259.921,0c-2.125-0.117-4.25-0.117-6.259,0.119l-36.843-193.673l-8.857-46.765
		c-1.3-7.795-5.787-12.401-13.465-13.698L80.247,53.823z"/>
	<path fill-rule="evenodd" clip-rule="evenodd" fill="#BCBCBB" d="M25.572,38.708C15.651,38.59,9.392,54.18,27.934,59.139
		l44.992,13.817l26.335,7.914c-1.063-5.434-6.142-7.088-6.142-7.088S54.977,62.445,42.34,58.429
		c-12.519-4.132-18.422-5.313-19.722-10.154c-1.297-4.841,5.316-9.211,5.316-9.211C27.695,39.063,26.751,38.945,25.572,38.708
		L25.572,38.708z"/>
	<path fill-rule="evenodd" clip-rule="evenodd" fill="#BCBCBB" d="M163.975,314.93l-36.843-193.673l-8.857-46.765
		c-1.3-7.795-5.787-12.401-13.465-13.698l-5.195-1.537c0,0-0.943,5.904,4.251,8.032c5.196,2.241,7.914,3.541,9.684,12.517
		c1.653,8.974,44.404,231.698,44.404,231.698S158.898,315.756,163.975,314.93L163.975,314.93z"/>
	<path fill-rule="evenodd" clip-rule="evenodd" fill="#BCBCBB" d="M142.957,311.032l1.534,8.503c0,0,1.182,14.642,23.5,14.642
		h66.841h69.793h67.667h50.428c17.713,0,28.458-6.375,35.073-13.816c-8.857,8.621-26.924,8.149-26.924,8.149
		s-246.817,0.236-260.397,0c-13.581-0.118-19.722-4.488-20.548-10.626C149.215,311.857,142.957,311.032,142.957,311.032
		L142.957,311.032z"/>
	<path fill-rule="evenodd" clip-rule="evenodd" fill="#888989" d="M198.341,397.831c0,0,2.48-4.015,12.163-3.897
		c9.684,0.237,145.375,0,145.375,0s8.502-0.353,10.981,3.897H198.341z"/>
	<path fill-rule="evenodd" clip-rule="evenodd" fill="#203543" d="M389.533,473.293c23.031,0,41.807-18.776,41.807-41.689
		c0-23.027-18.776-41.803-41.807-41.803c-22.909,0-41.685,18.776-41.685,41.803C347.849,454.517,366.624,473.293,389.533,473.293
		L389.533,473.293z"/>
	<path fill-rule="evenodd" clip-rule="evenodd" fill="#263B4B" d="M389.533,469.042c20.786,0,37.555-16.771,37.555-37.438
		c0-20.782-16.77-37.551-37.555-37.551c-20.664,0-37.551,16.769-37.551,37.551C351.982,452.271,368.87,469.042,389.533,469.042
		L389.533,469.042z"/>
	<path fill-rule="evenodd" clip-rule="evenodd" fill="#203543" d="M389.533,451.917c11.222,0,20.432-9.21,20.432-20.314
		c0-11.216-9.21-20.427-20.432-20.427c-11.099,0-20.311,9.21-20.311,20.427C369.223,442.707,378.435,451.917,389.533,451.917
		L389.533,451.917z"/>
	<path fill-rule="evenodd" clip-rule="evenodd" fill="#888989" d="M389.533,448.137c9.211,0,16.651-7.44,16.651-16.534
		c0-9.211-7.44-16.648-16.651-16.648c-9.092,0-16.53,7.438-16.53,16.648C373.003,440.697,380.441,448.137,389.533,448.137
		L389.533,448.137z"/>
	<path fill-rule="evenodd" clip-rule="evenodd" fill="#747272" d="M402.877,441.526c-3.067,4.012-7.913,6.611-13.344,6.611
		c-9.092,0-16.53-7.44-16.53-16.534c0-6.611,3.775-12.161,9.329-14.878c0.236,0,0.472,0,0.707,0.118
		C371.702,430.424,382.214,451.092,402.877,441.526L402.877,441.526z"/>
	<path fill-rule="evenodd" clip-rule="evenodd" fill="#203543" d="M198.341,473.293c22.91,0,41.687-18.776,41.687-41.689
		c0-23.027-18.777-41.803-41.687-41.803c-23.029,0-41.687,18.776-41.687,41.803C156.654,454.517,175.313,473.293,198.341,473.293
		L198.341,473.293z"/>
	<path fill-rule="evenodd" clip-rule="evenodd" fill="#263B4B" d="M198.341,469.042c20.666,0,37.554-16.771,37.554-37.438
		c0-20.782-16.888-37.551-37.554-37.551c-20.668,0-37.553,16.769-37.553,37.551C160.788,452.271,177.673,469.042,198.341,469.042
		L198.341,469.042z"/>
	<path fill-rule="evenodd" clip-rule="evenodd" fill="#203543" d="M198.341,451.917c11.219,0,20.312-9.21,20.312-20.314
		c0-11.216-9.093-20.427-20.312-20.427c-11.219,0-20.311,9.21-20.311,20.427C178.03,442.707,187.123,451.917,198.341,451.917
		L198.341,451.917z"/>
	<path fill-rule="evenodd" clip-rule="evenodd" fill="#888989" d="M198.341,448.137c9.093,0,16.533-7.44,16.533-16.534
		c0-9.211-7.439-16.648-16.533-16.648c-9.092,0-16.534,7.438-16.534,16.648C181.808,440.697,189.25,448.137,198.341,448.137
		L198.341,448.137z"/>
	<path fill-rule="evenodd" clip-rule="evenodd" fill="#747272" d="M212.158,440.697c-2.952,4.488-8.03,7.44-13.817,7.44
		c-9.209,0-16.534-7.44-16.534-16.534c0-7.083,4.369-13.108,10.511-15.468C180.982,429.716,191.493,450.384,212.158,440.697
		L212.158,440.697z"/>
</g>
</svg>
