<?xml version="1.0" encoding="utf-8"?>
<!-- Generator: Adobe Illustrator 19.0.0, SVG Export Plug-In . SVG Version: 6.00 Build 0)  -->
<svg version="1.1" id="Layer_1" xmlns="http://www.w3.org/2000/svg" xmlns:xlink="http://www.w3.org/1999/xlink" x="0px" y="0px"
	 viewBox="0 0 500 500" style="enable-background:new 0 0 500 500;" xml:space="preserve">
<style type="text/css">
	.st0{fill:#010202;}
</style>
<g id="XMLID_1_">
	<path id="XMLID_3_" class="st0" d="M423.9,218.1h0.6c2.2,0.1,4.4,1.4,6,3.9c1.3,2.1,2,5,2.1,7.9v1.1c-0.1,2.1-0.3,4.2-0.9,6.2
		c-0.6,2.1-1.4,4.1-2.2,6c-1.5,3.5-3.1,7-3.9,11c-0.4,1.8-0.5,3.7-0.6,5.6c-0.6,0-1.2,0-1.8,0c0-2.2-0.2-4.4-0.7-6.5
		c-1-4.4-2.9-8.1-4.5-12c-1.3-3.2-2.3-6.9-2.3-10.7c-0.1-3.2,0.7-6.5,2.2-8.7C419.4,219.3,421.7,218.2,423.9,218.1z"/>
	<path id="XMLID_4_" class="st0" d="M422.5,261.6c2.4-0.4,4.9,0,7,2c0.9,0.7,1.6,1.8,2.1,3.1c0.8,2.1,1,4.7,0.7,7.1
		c-0.3,2.2-1.1,4.2-2.3,5.5c-2.2,2.3-5,2.9-7.7,2.4c-1.2-0.3-2.4-0.8-3.5-1.8c-1.6-1.2-2.7-3.6-3-6.3c-0.3-2.5,0-5.3,0.9-7.4
		C418,263.4,420.3,262,422.5,261.6z"/>
	<path id="XMLID_5_" class="st0" d="M111.5,222.1v57.4h3.8v2.4H93.5v-2.4h3.8v-50.3h-0.1l-10.8,52.7h-2l-11-53.3h-0.1v43.3
		c0,2.3,0.2,4.2,0.6,5.6c0.4,1.4,1.3,2.1,2.7,2.1h0.9v2.4h-10v-2.4h0.9c2,0,3-2.5,3-7.5v-50h-3.6v-2.5h17.6l6,29.6l6.1-29.6h17.8
		v2.5H111.5z"/>
	<path id="XMLID_8_" class="st0" d="M125.2,281.9h-9.3v-2.4h1.1c0.7,0,1.3-0.9,1.9-2.6c0.6-1.8,1.1-3.9,1.6-6.5l10-50.7h10.1
		l12,59.9h2.7v2.4h-21.5v-2.4h3.5l-3.4-18.3H124l-1.9,9.6c-0.3,1.5-0.5,2.9-0.5,4c0,1.6,0.2,2.8,0.7,3.6c0.5,0.8,1,1.1,1.6,1.1h1.3
		L125.2,281.9L125.2,281.9z M133.3,258.7l-4.5-22.8l-4.4,22.8H133.3z"/>
	<path id="XMLID_9_" class="st0" d="M199.5,222.1v57.4h3.8v2.4h-21.9v-2.4h3.8v-50.3h-0.1l-10.8,52.7h-2l-11-53.3h-0.1v43.3
		c0,2.3,0.2,4.2,0.6,5.6c0.4,1.4,1.3,2.1,2.7,2.1h0.9v2.4h-10v-2.4h0.9c2,0,3-2.5,3-7.5v-50h-3.6v-2.5h17.6l6,29.6l6.1-29.6h17.8
		v2.5H199.5z"/>
	<path id="XMLID_10_" class="st0" d="M247.5,222.1v57.4h3.8v2.4h-21.9v-2.4h3.8v-50.3h-0.1l-10.8,52.7h-2l-11-53.3h-0.1v43.3
		c0,2.3,0.2,4.2,0.6,5.6c0.4,1.4,1.3,2.1,2.7,2.1h0.9v2.4h-10v-2.4h0.9c2,0,3-2.5,3-7.5v-50h-3.6v-2.5h17.6l6,29.6l6.1-29.6h17.8
		v2.5H247.5z"/>
	<path id="XMLID_13_" class="st0" d="M261.2,281.9h-9.3v-2.4h1.1c0.7,0,1.3-0.9,1.9-2.6c0.6-1.8,1.1-3.9,1.6-6.5l10-50.7h10.1
		l12,59.9h2.7v2.4h-21.5v-2.4h3.5l-3.4-18.3H260l-1.9,9.6c-0.3,1.5-0.5,2.9-0.5,4c0,1.6,0.2,2.8,0.7,3.6c0.5,0.8,1,1.1,1.6,1.1h1.3
		L261.2,281.9z M269.3,258.7l-4.5-22.8l-4.4,22.8H269.3z"/>
	<path id="XMLID_14_" class="st0" d="M348.4,222v57.4h3.8v2.4h-22v-2.4h3.8v-50.3h-0.1L323,281.8h-2l-11.1-53.3h-0.1v43.3
		c0,2.3,0.2,4.2,0.6,5.6c0.4,1.4,1.3,2.1,2.8,2.1h0.9v2.4h-10.1v-2.4h0.9c2,0,3-2.5,3-7.5v-50h-3.6v-2.5h17.7l6,29.6l6.2-29.6h18
		v2.5H348.4z"/>
	<polygon id="XMLID_15_" class="st0" points="375.2,281.8 352.6,281.8 352.6,279.4 356.3,279.4 356.3,222 352.6,222 352.6,219.6 
		375.2,219.6 375.2,222 371.5,222 371.5,279.4 375.2,279.4 	"/>
	<path id="XMLID_18_" class="st0" d="M385.1,281.8h-9.4v-2.4h1.1c0.7,0,1.3-0.9,1.9-2.6c0.6-1.8,1.1-3.9,1.6-6.5l10.1-50.7h10.2
		l12.1,59.9h2.7v2.4h-21.7v-2.4h3.5l-3.5-18.3h-9.9l-2,9.6c-0.3,1.5-0.5,2.9-0.5,4c0,1.6,0.2,2.8,0.7,3.6c0.5,0.8,1,1.1,1.6,1.1h1.3
		L385.1,281.8L385.1,281.8z M393.3,258.6l-4.5-22.8l-4.4,22.8H393.3z"/>
</g>
</svg>
